<svg xmlns="http://www.w3.org/2000/svg" width="960" height="600" viewBox="0 0 960 600" role="img" aria-labelledby="title desc">
  <title id="title">JWKS authentication flow preview</title>
  <desc id="desc">Authentication flow showing application, JWKS endpoint, and JWT verification services.</desc>
  <rect width="960" height="600" rx="34" fill="#081018"/>
  <rect x="34" y="32" width="892" height="536" rx="26" fill="#ffffff" opacity="0.045" stroke="#ffffff" stroke-opacity="0.13"/>
  <circle cx="70" cy="66" r="7" fill="#ff8e42"/><circle cx="94" cy="66" r="7" fill="#ffb36b"/><circle cx="118" cy="66" r="7" fill="#74a8ff"/>
  <text x="64" y="122" fill="#f4f8fb" font-family="Manrope, Arial, sans-serif" font-size="36" font-weight="800">gin-jwks-rsa</text>
  <text x="64" y="154" fill="#9db1c1" font-family="Manrope, Arial, sans-serif" font-size="18" font-weight="700" letter-spacing="3">AUTH INFRASTRUCTURE</text>
  <g font-family="Manrope, Arial, sans-serif">
    <rect x="78" y="236" width="220" height="172" rx="22" fill="#ffffff" opacity="0.07" stroke="#ffffff" stroke-opacity="0.12"/>
    <text x="122" y="305" fill="#f4f8fb" font-size="26" font-weight="800">Client</text>
    <text x="122" y="340" fill="#9db1c1" font-size="18" font-weight="700">Bearer JWT</text>
    <rect x="370" y="206" width="220" height="232" rx="24" fill="#74a8ff" opacity="0.14" stroke="#74a8ff" stroke-opacity="0.24"/>
    <text x="421" y="292" fill="#f4f8fb" font-size="28" font-weight="800">Gin</text>
    <text x="414" y="328" fill="#dce7f0" font-size="18" font-weight="700">JWKS endpoint</text>
    <text x="432" y="362" fill="#ffb36b" font-size="18" font-weight="800">/.well-known</text>
    <rect x="662" y="236" width="220" height="172" rx="22" fill="#ffb36b" opacity="0.14" stroke="#ffb36b" stroke-opacity="0.24"/>
    <text x="724" y="305" fill="#f4f8fb" font-size="26" font-weight="800">API</text>
    <text x="704" y="340" fill="#dce7f0" font-size="18" font-weight="700">RSA verify</text>
  </g>
  <path d="M306 322h52" stroke="#74a8ff" stroke-width="5" stroke-linecap="round"/>
  <path d="M602 322h52" stroke="#ffb36b" stroke-width="5" stroke-linecap="round"/>
  <path d="m350 308 18 14-18 14M646 308l18 14-18 14" fill="none" stroke="#dce7f0" stroke-width="4" stroke-linecap="round" stroke-linejoin="round"/>
</svg>
