<svg xmlns="http://www.w3.org/2000/svg" width="960" height="600" viewBox="0 0 960 600" role="img" aria-labelledby="title desc">
  <title id="title">GitHub Actions contract preview</title>
  <desc id="desc">Workflow validation interface with passing contract checks and CI policy cards.</desc>
  <rect width="960" height="600" rx="34" fill="#07111d"/>
  <rect x="34" y="32" width="892" height="536" rx="26" fill="#ffffff" opacity="0.045" stroke="#ffffff" stroke-opacity="0.13"/>
  <circle cx="70" cy="66" r="7" fill="#ff8e42"/><circle cx="94" cy="66" r="7" fill="#ffb36b"/><circle cx="118" cy="66" r="7" fill="#74a8ff"/>
  <text x="64" y="122" fill="#f4f8fb" font-family="Manrope, Arial, sans-serif" font-size="34" font-weight="800">github-actionspec-rs</text>
  <text x="64" y="154" fill="#9db1c1" font-family="Manrope, Arial, sans-serif" font-size="18" font-weight="700" letter-spacing="3">WORKFLOW CONTRACTS</text>
  <rect x="64" y="194" width="832" height="76" rx="18" fill="#74a8ff" opacity="0.13" stroke="#74a8ff" stroke-opacity="0.22"/>
  <text x="94" y="242" fill="#dce7f0" font-family="Manrope, Arial, sans-serif" font-size="22" font-weight="800">validate release.yml</text>
  <g font-family="Manrope, Arial, sans-serif" font-size="20" font-weight="700">
    <rect x="64" y="296" width="390" height="64" rx="16" fill="#ffffff" opacity="0.07"/>
    <circle cx="100" cy="328" r="10" fill="#74a8ff"/>
    <text x="124" y="335" fill="#dce7f0">permissions pinned</text>
    <rect x="506" y="296" width="390" height="64" rx="16" fill="#ffffff" opacity="0.07"/>
    <circle cx="542" cy="328" r="10" fill="#ffb36b"/>
    <text x="566" y="335" fill="#dce7f0">required jobs present</text>
    <rect x="64" y="386" width="390" height="64" rx="16" fill="#ffffff" opacity="0.07"/>
    <circle cx="100" cy="418" r="10" fill="#74a8ff"/>
    <text x="124" y="425" fill="#dce7f0">matrix bounded</text>
    <rect x="506" y="386" width="390" height="64" rx="16" fill="#ffffff" opacity="0.07"/>
    <circle cx="542" cy="418" r="10" fill="#ffb36b"/>
    <text x="566" y="425" fill="#dce7f0">secrets scoped</text>
  </g>
  <rect x="64" y="488" width="832" height="28" rx="14" fill="#ffffff" opacity="0.06"/>
  <rect x="64" y="488" width="682" height="28" rx="14" fill="#74a8ff" opacity="0.42"/>
</svg>
