<svg xmlns="http://www.w3.org/2000/svg" width="960" height="600" viewBox="0 0 960 600" role="img" aria-labelledby="title desc">
  <title id="title">Home operations cluster preview</title>
  <desc id="desc">Infrastructure dashboard with node cards, GitOps status, and automation lanes.</desc>
  <rect width="960" height="600" rx="34" fill="#081018"/>
  <rect x="34" y="32" width="892" height="536" rx="26" fill="#ffffff" opacity="0.045" stroke="#ffffff" stroke-opacity="0.13"/>
  <circle cx="70" cy="66" r="7" fill="#ff8e42"/><circle cx="94" cy="66" r="7" fill="#ffb36b"/><circle cx="118" cy="66" r="7" fill="#74a8ff"/>
  <text x="64" y="122" fill="#f4f8fb" font-family="Manrope, Arial, sans-serif" font-size="38" font-weight="800">home-ops</text>
  <text x="64" y="154" fill="#9db1c1" font-family="Manrope, Arial, sans-serif" font-size="18" font-weight="700" letter-spacing="3">BARE-METAL GITOPS</text>
  <g stroke="#ffffff" stroke-opacity="0.12">
    <rect x="64" y="214" width="252" height="112" rx="20" fill="#74a8ff" fill-opacity="0.14"/>
    <rect x="354" y="214" width="252" height="112" rx="20" fill="#ffffff" fill-opacity="0.07"/>
    <rect x="644" y="214" width="252" height="112" rx="20" fill="#ffb36b" fill-opacity="0.13"/>
    <rect x="64" y="366" width="252" height="112" rx="20" fill="#ffffff" fill-opacity="0.07"/>
    <rect x="354" y="366" width="252" height="112" rx="20" fill="#74a8ff" fill-opacity="0.12"/>
    <rect x="644" y="366" width="252" height="112" rx="20" fill="#ffffff" fill-opacity="0.07"/>
  </g>
  <g fill="#dce7f0" font-family="Manrope, Arial, sans-serif" font-size="20" font-weight="800">
    <text x="94" y="273">k8s-node-01</text><text x="384" y="273">storage</text><text x="674" y="273">edge</text>
    <text x="94" y="425">monitoring</text><text x="384" y="425">gitops</text><text x="674" y="425">automation</text>
  </g>
  <g fill="#9db1c1" font-family="Manrope, Arial, sans-serif" font-size="15" font-weight="700">
    <text x="94" y="301">healthy</text><text x="384" y="301">replicated</text><text x="674" y="301">synced</text>
    <text x="94" y="453">prometheus</text><text x="384" y="453">flux</text><text x="674" y="453">ansible</text>
  </g>
</svg>
