<svg xmlns="http://www.w3.org/2000/svg" width="960" height="600" viewBox="0 0 960 600" role="img" aria-labelledby="title desc">
  <title id="title">Knowledge database search preview</title>
  <desc id="desc">Knowledge search interface with query bar, semantic result rows, and document facets.</desc>
  <rect width="960" height="600" rx="34" fill="#07111d"/>
  <rect x="34" y="32" width="892" height="536" rx="26" fill="#ffffff" opacity="0.045" stroke="#ffffff" stroke-opacity="0.13"/>
  <circle cx="70" cy="66" r="7" fill="#ff8e42"/><circle cx="94" cy="66" r="7" fill="#ffb36b"/><circle cx="118" cy="66" r="7" fill="#74a8ff"/>
  <text x="64" y="122" fill="#f4f8fb" font-family="Manrope, Arial, sans-serif" font-size="36" font-weight="800">knowledge-db-rs</text>
  <text x="64" y="154" fill="#9db1c1" font-family="Manrope, Arial, sans-serif" font-size="18" font-weight="700" letter-spacing="3">SEMANTIC SEARCH</text>
  <rect x="64" y="204" width="832" height="64" rx="18" fill="#ffffff" opacity="0.09" stroke="#ffffff" stroke-opacity="0.12"/>
  <circle cx="101" cy="236" r="12" fill="none" stroke="#74a8ff" stroke-width="4"/>
  <path d="m110 246 15 15" stroke="#74a8ff" stroke-width="4" stroke-linecap="round"/>
  <text x="150" y="244" fill="#dce7f0" font-family="Manrope, Arial, sans-serif" font-size="22" font-weight="700">validator reliability notes</text>
  <g>
    <rect x="64" y="306" width="536" height="58" rx="16" fill="#74a8ff" opacity="0.12"/>
    <rect x="64" y="386" width="536" height="58" rx="16" fill="#ffffff" opacity="0.07"/>
    <rect x="64" y="466" width="536" height="58" rx="16" fill="#ffffff" opacity="0.07"/>
    <rect x="636" y="306" width="260" height="218" rx="20" fill="#ffffff" opacity="0.06"/>
  </g>
  <g fill="#dce7f0" font-family="Manrope, Arial, sans-serif" font-size="18" font-weight="700">
    <text x="94" y="342">epoch landing incidents</text>
    <text x="94" y="422">private-key failure domains</text>
    <text x="94" y="502">operator runbook draft</text>
    <text x="668" y="348">Facets</text>
  </g>
  <rect x="668" y="378" width="150" height="26" rx="13" fill="#ffb36b" opacity="0.25"/>
  <rect x="668" y="424" width="184" height="26" rx="13" fill="#74a8ff" opacity="0.23"/>
  <rect x="668" y="470" width="118" height="26" rx="13" fill="#ffffff" opacity="0.13"/>
</svg>
